<?xml version="1.0" encoding="utf-8"?>
<!-- Svg Vector Icons : http://www.onlinewebfonts.com/icon -->
<!DOCTYPE svg PUBLIC "-//W3C//DTD SVG 1.1//EN" "http://www.w3.org/Graphics/SVG/1.1/DTD/svg11.dtd">
<svg version="1.1" xmlns="http://www.w3.org/2000/svg" xmlns:xlink="http://www.w3.org/1999/xlink" x="0px" y="0px" viewBox="0 0 256 256" enable-background="new 0 0 256 256" xml:space="preserve">
<metadata> Svg Vector Icons : http://www.onlinewebfonts.com/icon </metadata>
<g><g><path fill="#000000" d="M157.8,60.2"/><path fill="#000000" d="M173.5,64.4c15.3,0,27.8-12.4,27.8-27.8c0-15.3-12.4-27.8-27.8-27.8s-27.8,12.4-27.8,27.8C145.7,52,158.2,64.4,173.5,64.4L173.5,64.4z"/><path fill="#000000" d="M219.2,56.4c-15.9,22.4-37.3,24.9-60.3,11.3c-1.6-0.9-8.5-4.7-10-5.7c-37-21.9-73.9-13.3-98.7,21.3C39.7,98.2,64,112.1,74.4,97.6c12.8-17.9,29.1-23.1,46.9-17.4C112.2,96,104.2,111.7,93,134c-11.2,22.3-36.1,40.2-59.9,26.2c-17.2-10.1-32.8,14.6-15.6,24.7c32.6,19,70.8,7.3,90.2-17.4c0.7,0.4,1.4,0.7,2.2,1c15.9,5.5,36.8,20.3,43.2,25.6c6.4,5.2,17.3,31.9,23.8,45.3c7.9,16.3,33.3,4.4,25.4-11.9c-7.3-15.2-19.7-45.5-29.3-53.2c-7.7-6.2-22.7-17.6-35.5-24.1c8.6-16.7,17.6-33.2,27-49.3c30.1,9.2,58.6-1.6,79-30.2C254,55.8,229.6,41.8,219.2,56.4L219.2,56.4z"/><path fill="#000000" d="M203.5,52.2"/></g></g>
</svg>